<svg xmlns="http://www.w3.org/2000/svg" version="1.1" xmlns:xlink="http://www.w3.org/1999/xlink" xmlns:svgjs="http://svgjs.dev/svgjs" width="2000" height="1500" viewBox="0 0 2000 1500"><rect width="2000" height="1500" fill="#17426f"></rect><g transform="matrix(0.4444444444444444,0,0,0.4444444444444444,555.5555625,250)"><svg viewBox="0 0 320 360" data-background-color="#17426f" preserveAspectRatio="xMidYMid meet" height="2250" width="2000" xmlns="http://www.w3.org/2000/svg" xmlns:xlink="http://www.w3.org/1999/xlink"><g id="tight-bounds" transform="matrix(1,0,0,1,0.0000025000000505315256,0)"><svg viewBox="0 0 320 360" height="360" width="320"><g><svg></svg></g><g><svg viewBox="0 0 320 360" height="360" width="320"><g><path transform="translate(-19.44751,3.1739) scale(3.53591,3.53591)" d="M67.6 10.7c0.2 0 1.8 0.8 2.7 1.1-0.3 0.1-1-0.2-1.8-0.5 0.2 0 0.6 0.1 1 0.3-0.2-0.2-1.7-0.7-1.9-0.9M52.7 7.6c0.3-0.1 3.8 0.4 5.4 0.5 0.1-0.1-0.2-0.1-0.6-0.2 0.5-0.1 1.5 0.2 2.2 0.3-2.1 0.1-4.4-0.5-6.4-0.3-0.7 0-0.2-0.2-0.6-0.3M49.8 7.6c1.8 0 3.2 0 0.6 0.2-0.3-0.1-0.7-0.1-0.6-0.2M78.1 15.9c0.2 0 1 0.9 1.4 1.2-0.1 0.1-0.9-0.7-1.3-1 0.1 0.1 0 0-0.1-0.2M76.1 14.6c-0.8-0.7-1.1-0.7-1.2-1.1 0.7 0.4 1.2 0.8 1.2 1.1M63.2 8.3c0.1-0.1 0.3 0.1 0.8 0.2-0.6-0.1-0.5 0-0.3 0.2-0.7-0.1-0.9-0.2-0.7-0.4 0.4 0.2 0.5 0.1 0.2 0M34.8 9.5c0-0.1 0.4-0.3 0.7-0.4-0.3 0.2-0.2 0.3 0.3 0.1 0 0.1-0.6 0.3-1 0.5 0.2-0.1 0.4-0.4 0-0.2M65.2 7.3c-0.3 0.1-1.4-0.5-2.5-0.7-0.6-0.2 2.4 0.5 2.5 0.7M6.2 56.7c0.6 2.5 0.2 2.4 0 0M6.3 41.7c0.1-0.4 0.2-1.5 0.3-1.4-0.3 2.4-0.8 3.5-0.9 5.3 0.3-1.6-0.1 0.9-0.2 1.5 0.1 0.8 0.1-0.5 0.3-0.3 0.2 0.3-0.4 4.5-0.2 2.2-0.2 2.1 0 4.4 0.4 5-0.5 3.2 2 10.4 2.5 11.9 0.1 0.1 0-0.5 0.2-0.1 0.2 1.3 1.1 2.2 1.4 3.6 0.3 0.4 1.5 2.6 1.7 3.1 0.4 0.8 0.6 0.7 1 1.5 1.2 2.3 3.1 4.5 4.9 6.6 5.8 6.8 14.7 12.4 24.6 14.4 9.9 2.1 20.3 0.6 28.4-3.3 0.5-0.3 0.4-0.4 1-0.6 2.8-0.9 6.2-3.8 8.1-4.9 0.9-1 3.3-2.7 3.6-3.7 1.7-1.4 3.4-3.7 4.3-5.2 0.5-0.8 0.9-0.8 1.1-1.3-0.1 0 1.6-2.1 2.1-3.3-0.2 0-0.5 0.6-0.5 0 3.6-6.9 5.6-16.2 4.5-22.6 0.2 7.9-1.8 16.7-5.6 22.3-1.7 3.6-5.2 7.5-8.4 10.3-0.5 0.5-1 1.1-1.6 1.5-1.9 1.6-4 2.9-6.2 4.1-5.2 2.9-11 5.4-17.8 5.5 11.7-1 22.2-6.9 28-14.1-4.4 4.3-6.3 6-11.2 8.5-0.4 0.7-3.7 2.1-5.9 2.7 1.3-0.6 4-1.6 4.9-2.4-7.3 3.5-15.4 5.5-23 4.4 2.9 0 7 0.1 10.9-0.6 0.6-0.2 0.9-0.4 1.6-0.5 7.6-1.7 14.9-5.4 20.1-10.6-3 2.7-7.5 5.9-10.4 6.9 2.7-1.5 7.6-4.4 9.2-6.6-3.2 3.2-9.2 6.4-13 7.8-0.6 0.1 0.4-0.4-0.6 0-1.2 0.3-0.7 0.3-1 0.5-4.6 1.3-9.9 2.4-14.3 2-0.8-0.1-1.1-0.3-1.8-0.3-0.8-0.1-1.5-0.1-2.4-0.1-3.5-0.4-7.3-1.8-10.1-3-1.5-0.7-3-1.2-4.5-2.1-1.2-0.7-2.2-1.5-3.2-2.3-3.8-2.8-7-5.6-10-9.6-5.4-7.5-8.2-16.9-7.8-26.2 0.4-9.3 4.1-18.4 10-25.1-0.3 0.3 0.4-0.7 1-1.3 0 0.2-0.1 0.5 0.6-0.2 0.6-0.7-0.2-0.2 0.1-0.6 6.2-6.8 17-12.3 28.1-12.5 0.4-0.3 1.1-0.7 1.9-0.5 0 0.1-0.5 0.1-0.5 0.1 1.1-0.1 2.1-0.1 2.6 0.1 0.1-0.1-0.4-0.2 0-0.2 0.7 0.2 0.9 0 1.3 0.2-0.3 0-0.6 0-0.8 0.1 2.5 0 4.1 0.6 6.6 0.8-1.3-0.3-1.6-0.3-2.6-0.6 1.1 0.2 1.6 0.4 2.1 0.3-0.2 0-0.1-0.3 0.1-0.2 2 0.5 2.2 0.7 4.3 1.4 0.2-0.2-0.9-0.3-1.2-0.6 2 0.7 3.8 1.2 5 2-0.4-0.3-1.6-0.7-2.5-1.1-0.1 0.1 0.3 0.2 0.4 0.4-1-0.5-2.4-1-3.8-1.2 1.2 0.3 2 0.7 2.5 0.9-1.1-0.2-2.5-0.9-4.1-1.2 2.6 0.8 7.5 2.6 10.5 4.2-1.1-0.7-2.4-1.2-3.1-1.6 0.6 0.1 1.3 0.5 1.3 0.3 0.7 0.3 1.6 1 2.1 1.1-0.9-0.6-2.7-1.5-3.3-1.8 7.5 3.4 14.2 9.1 18.5 16.4 0.4 0.7 1 2.3 1.5 2.5-0.1-0.5-0.5-0.8-0.9-1.6 0.2 0 0.2-0.3 0-0.6-0.4-0.5 0 0.4-0.4-0.1-1.8-3.3-4-6.2-7.4-9.4 1.9 1.8 0.5 0.5 0.1-0.1 2.6 2.3 5.6 6.2 6.9 8.2-0.2-0.3-0.3-0.5-0.2-0.5 2.4 4.1 3.9 7.8 5.4 13.1 0.1 0.1 0-0.4 0.2-0.1 1 4.2 1.3 7.7 1.2 10.9 0.8-5.4-1-13.8-4.2-20.4-0.4-0.8-0.4-0.2-0.8-1.1 0-0.3-0.3-0.9-0.5-1.3-4-6.6-8.9-11.3-14.7-15 0.4 0.2 1.2 0.8 1.2 0.7-10.8-7.1-23.3-8.1-33.6-5.9-0.7 0.3-1 0.6-1.8 1 1.5-0.5 2.4-0.6 3.8-0.9 0.3-0.3-1.3 0.1-0.6-0.2 0.1 0.1 1.4-0.2 1.7-0.1 0 0.1-0.4 0.2-0.5 0.3 3.3-0.7 6.7-0.8 9.6-0.6-1.7 0.1-4.8-0.2-5.8 0.3 1-0.1 2.4-0.2 3.3-0.1-1.2 0-3.4 0.1-4.4 0.2-0.1-0.1 1.6-0.3 0.5-0.3-0.5 0.1-1.3 0.1-1.6 0.4-8.6 0.8-17 5.3-22.9 10.6-1.2 1-2.6 2.1-3.5 3.2-2.2 2.5-3.6 5-5.2 7.2 1-2.1 3.2-5.3 5.8-8 2.6-2.7 5.4-5 6.9-6.2 0 0.4 2.4-1.5 3.3-2.1-0.6 0.5 0.4-0.2 0.6-0.1 3.2-1.9 5.8-2.6 8.7-3.7-0.7 0.2-1.3 0.4-1.4 0.3 0.7-0.2 1.1-0.4 1-0.5-2.8 0.8-7.2 2.7-10.7 4.8 6.3-4.3 14.3-6.9 22.2-7 7.9-0.2 15.6 1.8 21.7 5 4.1 1.8 8 5.1 11.1 8.3 0.9 0.8 0.2-0.2 1.5 1.2-0.4-0.2-0.7-0.4-0.2 0.2 0.8 0.9-0.2-0.7 1.1 0.9-0.1 0-0.5-0.5-0.5-0.3 3.5 3.1 6.2 8.7 7.8 12.4-0.4-1.5-1.4-3.6-2.2-5.1 2.4 4.4 3.2 7 4.2 10.9 0.4 0.3-0.2-1.4 0.2-0.6 0.1 0.6 0.2 2.5 0.6 2.8-0.3-1.9-0.8-4.2-1.2-4.6 0.3 0.2-0.5-2.3-1-2.9-0.2-1.6-1.6-4.4-2.8-6.5-4.3-8.4-12-15.3-20.6-19.1 0-0.2-0.5-0.4-0.7-0.6-8.5-3.6-18.7-4.6-28.5-2.3-9.9 2.4-19.2 8.1-25.8 16.3 0.3-1 2.8-2.9 2.9-3.7-2.9 3.1-6 7.2-8.1 11.6-2.2 4.4-3.4 8.9-3.9 12.2" fill="#9fc1e4" fill-rule="nonzero" stroke="none" stroke-width="1" stroke-linecap="butt" stroke-linejoin="miter" stroke-miterlimit="10" stroke-dasharray="" stroke-dashoffset="0" font-family="none" font-weight="none" font-size="none" text-anchor="none" style="mix-blend-mode: normal" data-fill-palette-color="tertiary"></path></g><g transform="matrix(1,0,0,1,104.72777705483,90)"><svg viewBox="0 0 110.54444589034001 180" height="180" width="110.54444589034001"><g><svg viewBox="0 0 225.12 366.5638709718387" height="180" width="110.54444589034001"><g><rect width="225.12" height="13.168116298766355" x="0" y="172.9055544487733" fill="#9fc1e4" opacity="1" stroke-width="0" stroke="transparent" fill-opacity="1" class="rect-r$-0" data-fill-palette-color="primary" rx="1%" id="r$-0" data-palette-color="#9fc1e4"></rect></g><g transform="matrix(1,0,0,1,0.5599999999999881,220.5451793830537)"><svg viewBox="0 0 224.00000000000003 146.01869158878506" height="146.01869158878506" width="224.00000000000003"><g id="textblocktransform"><svg viewBox="0 0 224.00000000000003 146.01869158878506" height="146.01869158878506" width="224.00000000000003" id="textblock"><g><svg viewBox="0 0 224.00000000000003 146.01869158878506" height="146.01869158878506" width="224.00000000000003"><g transform="matrix(1,0,0,1,0,0)"><svg width="224.00000000000003" viewBox="4.31 -31.61 49.19 32.07" height="146.01869158878506" data-palette-color="#9fc1e4"><path d="M13.97-13.68L8.16-13.68 8.16-1.9Q8.16-0.52 6.9-0.11L6.9-0.11Q6.55 0 6.03 0 5.52 0 4.91-0.46 4.31-0.92 4.31-1.9L4.31-1.9 4.31-29.43Q4.31-30.57 5.52-31.21L5.52-31.21Q5.86-31.38 6.32-31.38L6.32-31.38 14.14-31.38Q23.91-31.38 26.03-25.4L26.03-25.4Q26.55-24.02 26.55-22.47 26.55-20.92 26.09-19.6 25.63-18.28 24.77-17.24 23.91-16.21 22.7-15.57 21.49-14.94 20.11-14.48L20.11-14.48Q17.41-13.68 13.97-13.68L13.97-13.68ZM8.16-16.78L14.66-16.78Q18.39-16.78 20.17-18.05L20.17-18.05Q22.53-19.54 22.53-22.59L22.53-22.59Q22.53-25.52 20.17-27.01L20.17-27.01Q18.39-28.16 14.71-28.28L14.71-28.28 8.16-28.28 8.16-16.78ZM35.11-23.45L35.11-23.45Q35.11-22.24 35.92-21.18 36.72-20.11 37.99-19.43 39.25-18.74 40.86-18.22 42.47-17.7 44.25-17.13 46.03-16.55 47.76-15.86 49.48-15.17 50.74-14.14L50.74-14.14Q53.5-11.9 53.5-8.05L53.5-8.05Q53.5-6.21 52.64-4.57 51.78-2.93 50.23-1.84L50.23-1.84Q47.07 0.46 41.78 0.46L41.78 0.46Q36.78 0.46 32.99-2.07L32.99-2.07Q30.63-3.56 30.63-4.6L30.63-4.6Q30.63-5.52 31.55-6.09L31.55-6.09Q31.78-6.32 32.12-6.32 32.47-6.32 32.87-6.03 33.27-5.75 33.82-5.34 34.37-4.94 35.2-4.45 36.03-3.97 36.95-3.56L36.95-3.56Q39.25-2.64 41.43-2.7 43.62-2.76 44.94-3.05 46.26-3.33 47.3-4.02L47.3-4.02Q49.48-5.52 49.54-7.82L49.54-7.82Q49.54-10.69 46.72-12.24L46.72-12.24Q45.46-12.93 43.88-13.48 42.3-14.02 40.54-14.54 38.79-15.06 37.07-15.8 35.34-16.55 34.02-17.59L34.02-17.59Q31.2-19.83 31.2-23.33L31.2-23.33Q31.2-25.17 32.1-26.78 32.99-28.39 34.54-29.43L34.54-29.43Q37.53-31.55 42.01-31.61L42.01-31.61Q48.5-31.61 52.47-27.41L52.47-27.41Q52.7-27.07 52.7-26.64 52.7-26.21 52.67-25.92 52.64-25.63 52.35-25.34L52.35-25.34Q51.95-24.83 51.29-24.83 50.63-24.83 49.88-25.69L49.88-25.69Q47.99-27.07 46.84-27.47L46.84-27.47Q44.54-28.39 42.35-28.39L42.35-28.39Q39.54-28.39 37.53-27.24L37.53-27.24Q35.11-25.86 35.11-23.45Z" opacity="1" transform="matrix(1,0,0,1,0,0)" fill="#9fc1e4" class="wordmark-text-0" data-fill-palette-color="primary" id="text-0"></path></svg></g></svg></g></svg></g></svg></g><g transform="matrix(1,0,0,1,43.343999999999994,0)"><svg viewBox="0 0 138.43200000000002 138.43404581325927" height="138.43404581325927" width="138.43200000000002"><g><svg xmlns="http://www.w3.org/2000/svg" xmlns:xlink="http://www.w3.org/1999/xlink" version="1.1" x="0" y="0" viewBox="16.167 16.186999999999998 67.666 67.667" style="enable-background:new 0 0 100 100;" xml:space="preserve" height="138.43404581325927" width="138.43200000000002" class="icon-icon-0" data-fill-palette-color="accent" id="icon-0"><g fill="#001f3f" data-fill-palette-color="accent"><path d="M50 83.854c-18.655 0-33.833-15.178-33.833-33.834 0-18.655 15.178-33.833 33.833-33.833s33.833 15.178 33.833 33.833C83.833 68.677 68.655 83.854 50 83.854zM50 20.188c-16.45 0-29.833 13.383-29.833 29.833S33.55 79.854 50 79.854s29.833-13.384 29.833-29.834S66.45 20.188 50 20.188z" fill="#001f3f" data-fill-palette-color="accent"></path></g><g fill="#001f3f" data-fill-palette-color="accent"><g fill="#001f3f" data-fill-palette-color="accent"><rect x="41.885" y="33.875" width="4" height="32.25" fill="#001f3f" data-fill-palette-color="accent"></rect></g><g fill="#001f3f" data-fill-palette-color="accent"><path d="M51.74 54.625h-5.855v-4h5.855c3.516 0 6.375-2.859 6.375-6.375s-2.859-6.375-6.375-6.375h-5.855v-4h5.855c5.721 0 10.375 4.654 10.375 10.375S57.461 54.625 51.74 54.625z" fill="#001f3f" data-fill-palette-color="accent"></path></g></g></svg></g></svg></g><g></g></svg></g></svg></g></svg></g><defs></defs></svg><rect width="320" height="360" fill="none" stroke="none" visibility="hidden"></rect></g></svg></g></svg>